<mxfile host="app.diagrams.net" modified="2024-07-22T08:31:39.145Z" agent="Mozilla/5.0 (Macintosh; Intel Mac OS X 10_15_7) AppleWebKit/537.36 (KHTML, like Gecko) Chrome/126.0.0.0 Safari/537.36" etag="Xsd-_OPhpf5Ht0G49PqC" version="24.7.1" type="github">
  <diagram name="第 1 页" id="NbrsP52cZE2BfqQrUnqM">
    <mxGraphModel dx="1781" dy="2241" grid="1" gridSize="10" guides="1" tooltips="1" connect="1" arrows="1" fold="1" page="1" pageScale="1" pageWidth="827" pageHeight="1169" math="0" shadow="0">
      <root>
        <mxCell id="0" />
        <mxCell id="1" parent="0" />
        <mxCell id="oFKlcFwJnzUMVpn3___l-8" style="edgeStyle=orthogonalEdgeStyle;rounded=0;orthogonalLoop=1;jettySize=auto;html=1;entryX=0;entryY=0.5;entryDx=0;entryDy=0;" edge="1" parent="1" source="oFKlcFwJnzUMVpn3___l-1" target="oFKlcFwJnzUMVpn3___l-2">
          <mxGeometry relative="1" as="geometry" />
        </mxCell>
        <mxCell id="oFKlcFwJnzUMVpn3___l-9" style="edgeStyle=orthogonalEdgeStyle;rounded=0;orthogonalLoop=1;jettySize=auto;html=1;entryX=0;entryY=0.5;entryDx=0;entryDy=0;" edge="1" parent="1" source="oFKlcFwJnzUMVpn3___l-1" target="oFKlcFwJnzUMVpn3___l-3">
          <mxGeometry relative="1" as="geometry" />
        </mxCell>
        <mxCell id="oFKlcFwJnzUMVpn3___l-12" style="edgeStyle=orthogonalEdgeStyle;rounded=0;orthogonalLoop=1;jettySize=auto;html=1;entryX=0;entryY=0.5;entryDx=0;entryDy=0;" edge="1" parent="1" source="oFKlcFwJnzUMVpn3___l-1" target="oFKlcFwJnzUMVpn3___l-4">
          <mxGeometry relative="1" as="geometry" />
        </mxCell>
        <mxCell id="oFKlcFwJnzUMVpn3___l-13" style="edgeStyle=orthogonalEdgeStyle;rounded=0;orthogonalLoop=1;jettySize=auto;html=1;entryX=0;entryY=0.5;entryDx=0;entryDy=0;" edge="1" parent="1" source="oFKlcFwJnzUMVpn3___l-1" target="oFKlcFwJnzUMVpn3___l-5">
          <mxGeometry relative="1" as="geometry" />
        </mxCell>
        <mxCell id="oFKlcFwJnzUMVpn3___l-14" style="edgeStyle=orthogonalEdgeStyle;rounded=0;orthogonalLoop=1;jettySize=auto;html=1;entryX=0;entryY=0.5;entryDx=0;entryDy=0;" edge="1" parent="1" source="oFKlcFwJnzUMVpn3___l-1" target="oFKlcFwJnzUMVpn3___l-6">
          <mxGeometry relative="1" as="geometry" />
        </mxCell>
        <mxCell id="oFKlcFwJnzUMVpn3___l-16" style="edgeStyle=orthogonalEdgeStyle;rounded=0;orthogonalLoop=1;jettySize=auto;html=1;entryX=0;entryY=0.5;entryDx=0;entryDy=0;" edge="1" parent="1" source="oFKlcFwJnzUMVpn3___l-1" target="oFKlcFwJnzUMVpn3___l-7">
          <mxGeometry relative="1" as="geometry" />
        </mxCell>
        <mxCell id="oFKlcFwJnzUMVpn3___l-1" value="&lt;font style=&quot;font-size: 18px;&quot;&gt;计算机网络&lt;/font&gt;" style="rounded=1;whiteSpace=wrap;html=1;" vertex="1" parent="1">
          <mxGeometry x="-827" y="1140" width="120" height="60" as="geometry" />
        </mxCell>
        <mxCell id="oFKlcFwJnzUMVpn3___l-2" value="&lt;span style=&quot;font-size: 18px;&quot;&gt;计算机网络体系结构&lt;/span&gt;" style="rounded=1;whiteSpace=wrap;html=1;" vertex="1" parent="1">
          <mxGeometry x="-580" y="600" width="120" height="60" as="geometry" />
        </mxCell>
        <mxCell id="oFKlcFwJnzUMVpn3___l-3" value="&lt;span style=&quot;font-size: 18px;&quot;&gt;物理层&lt;/span&gt;" style="rounded=1;whiteSpace=wrap;html=1;" vertex="1" parent="1">
          <mxGeometry x="-580" y="815" width="120" height="60" as="geometry" />
        </mxCell>
        <mxCell id="oFKlcFwJnzUMVpn3___l-4" value="&lt;span style=&quot;font-size: 18px;&quot;&gt;数据链路层&lt;/span&gt;" style="rounded=1;whiteSpace=wrap;html=1;" vertex="1" parent="1">
          <mxGeometry x="-580" y="1040" width="120" height="60" as="geometry" />
        </mxCell>
        <mxCell id="oFKlcFwJnzUMVpn3___l-5" value="&lt;span style=&quot;font-size: 18px;&quot;&gt;网络层&lt;/span&gt;" style="rounded=1;whiteSpace=wrap;html=1;" vertex="1" parent="1">
          <mxGeometry x="-580" y="1270" width="120" height="60" as="geometry" />
        </mxCell>
        <mxCell id="oFKlcFwJnzUMVpn3___l-6" value="&lt;span style=&quot;font-size: 18px;&quot;&gt;传输层&lt;/span&gt;" style="rounded=1;whiteSpace=wrap;html=1;" vertex="1" parent="1">
          <mxGeometry x="-580" y="1500" width="120" height="60" as="geometry" />
        </mxCell>
        <mxCell id="oFKlcFwJnzUMVpn3___l-7" value="&lt;span style=&quot;font-size: 18px;&quot;&gt;应用层&lt;/span&gt;" style="rounded=1;whiteSpace=wrap;html=1;" vertex="1" parent="1">
          <mxGeometry x="-580" y="1730" width="120" height="60" as="geometry" />
        </mxCell>
      </root>
    </mxGraphModel>
  </diagram>
</mxfile>
